SplineFontDB: 3.0
FontName: DSEG7ModernMini-Light
FullName: DSEG7 Modern Mini-Light
FamilyName: DSEG7 Modern Mini
Weight: Light
Copyright: Created by Keshikan(https://twitter.com/keshinomi_88pro)\nwith FontForge 2.0 (http://fontforge.sf.net)
UComments: "2014-8-31: Created." 
Version: 0.2
ItalicAngle: 0
UnderlinePosition: -100
UnderlineWidth: 50
Ascent: 1000
Descent: 0
LayerCount: 2
Layer: 0 0 "+gMyXYgAA"  1
Layer: 1 0 "+Uk2XYgAA"  0
XUID: [1021 682 390630330 14528854]
FSType: 8
OS2Version: 0
OS2_WeightWidthSlopeOnly: 0
OS2_UseTypoMetrics: 1
CreationTime: 1409488158
ModificationTime: 1483781094
PfmFamily: 17
TTFWeight: 300
TTFWidth: 5
LineGap: 90
VLineGap: 0
OS2TypoAscent: 0
OS2TypoAOffset: 1
OS2TypoDescent: 0
OS2TypoDOffset: 1
OS2TypoLinegap: 90
OS2WinAscent: 0
OS2WinAOffset: 1
OS2WinDescent: 0
OS2WinDOffset: 1
HheadAscent: 0
HheadAOffset: 1
HheadDescent: 0
HheadDOffset: 1
OS2Vendor: 'PfEd'
MarkAttachClasses: 1
DEI: 91125
LangName: 1033 "Created by Keshikan+AAoA-with FontForge 2.0 (http://fontforge.sf.net)" "" "" "" "" "Version 0.2" "" "" "" "Keshikan(Twitter:@keshinomi_88pro)" "" "" "http://www.keshikan.net" "" "" "" "" "" "" "DSEG.7 12:34" 
Encoding: ISO8859-1
UnicodeInterp: none
NameList: Adobe Glyph List
DisplaySize: -24
AntiAlias: 1
FitToEm: 1
WinInfo: 0 24 9
BeginPrivate: 0
EndPrivate
BeginChars: 256 67

StartChar: zero
Encoding: 48 48 0
Width: 816
VWidth: 200
Flags: HW
LayerCount: 2
Fore
SplineSet
160.779 530.91 m 1
 133.998 484.556 l 1
 98.9746 504.775 l 1
 98.9746 958.792 l 2
 98.9746 963.596 99.8545 968.196 101.38 972.499 c 2
 160.779 938.195 l 1
 160.779 734.553 l 1
 160.779 530.91 l 1
531.646 61.8047 m 1
 638.671 0 l 1
 408.007 0 l 1
 196.436 0 l 1
 232.12 61.8047 l 1
 408.007 61.8047 l 1
 531.646 61.8047 l 1
681.987 515.451 m 1
 717.025 495.218 l 1
 717.025 41.2012 l 2
 717.025 36.3965 716.152 31.7969 714.619 27.501 c 2
 655.213 61.7979 l 1
 655.22 61.7979 l 1
 655.22 265.447 l 1
 655.22 469.098 l 1
 655.22 469.098 l 1
 681.987 515.451 l 1
126.469 2.40527 m 1
 110.501 8.09668 98.9746 23.3438 98.9746 41.208 c 2
 98.9746 433.428 l 1
 160.779 397.742 l 1
 160.779 265.455 l 1
 160.779 61.8125 l 1
 126.469 2.40527 l 1
284.39 938.195 m 1
 177.321 1000 l 1
 408.007 1000 l 1
 675.824 1000 l 2
 680.628 1000 685.229 999.128 689.531 997.595 c 2
 655.228 938.195 l 1
 408.007 938.195 l 1
 284.39 938.195 l 1
655.22 814.614 m 1
 717.024 921.668 l 1
 717.024 566.58 l 1
 655.22 602.25 l 1
 655.22 734.553 l 1
 655.22 814.614 l 1
EndSplineSet
EndChar

StartChar: eight
Encoding: 56 56 1
Width: 816
VWidth: 200
Flags: HW
LayerCount: 2
Fore
SplineSet
583.857 469.098 m 1
 408.007 469.098 l 1
 196.45 469.098 l 1
 232.135 530.902 l 1
 408.007 530.902 l 1
 619.557 530.902 l 1
 583.857 469.098 l 1
160.779 530.91 m 1
 133.998 484.556 l 1
 98.9746 504.775 l 1
 98.9746 958.792 l 2
 98.9746 963.596 99.8545 968.196 101.38 972.499 c 2
 160.779 938.195 l 1
 160.779 734.553 l 1
 160.779 530.91 l 1
531.646 61.8047 m 1
 638.671 0 l 1
 408.007 0 l 1
 196.436 0 l 1
 232.12 61.8047 l 1
 408.007 61.8047 l 1
 531.646 61.8047 l 1
681.987 515.451 m 1
 717.025 495.218 l 1
 717.025 41.2012 l 2
 717.025 36.3965 716.152 31.7969 714.619 27.501 c 2
 655.213 61.7979 l 1
 655.22 61.7979 l 1
 655.22 265.447 l 1
 655.22 469.098 l 1
 655.22 469.098 l 1
 681.987 515.451 l 1
126.469 2.40527 m 1
 110.501 8.09668 98.9746 23.3438 98.9746 41.208 c 2
 98.9746 433.428 l 1
 160.779 397.742 l 1
 160.779 265.455 l 1
 160.779 61.8125 l 1
 126.469 2.40527 l 1
284.39 938.195 m 1
 177.321 1000 l 1
 408.007 1000 l 1
 675.824 1000 l 2
 680.628 1000 685.229 999.128 689.531 997.595 c 2
 655.228 938.195 l 1
 408.007 938.195 l 1
 284.39 938.195 l 1
655.22 814.614 m 1
 717.024 921.668 l 1
 717.024 566.58 l 1
 655.22 602.25 l 1
 655.22 734.553 l 1
 655.22 814.614 l 1
EndSplineSet
EndChar

StartChar: one
Encoding: 49 49 2
Width: 816
VWidth: 200
Flags: HW
LayerCount: 2
Fore
SplineSet
619.557 530.902 m 1
681.987 515.451 m 1,1,-1
 717.025 495.218 l 1,2,-1
 717.025 41.2012 l 2,3,4
 717.025 36.3965 716.152 31.7969 714.619 27.501 c 2,5,-1
 655.213 61.7979 l 1,6,-1
 655.22 61.7979 l 1,7,-1
 655.22 265.447 l 1,8,-1
 655.22 469.098 l 1,9,-1
 655.22 469.098 l 1,10,-1
 681.987 515.451 l 1,1,-1
655.22 814.614 m 1,11,-1
 717.024 921.668 l 1,12,-1
 717.024 566.58 l 1,13,-1
 655.22 602.25 l 1,14,-1
 655.22 734.553 l 1,15,-1
 655.22 814.614 l 1,11,-1
EndSplineSet
EndChar

StartChar: two
Encoding: 50 50 3
Width: 816
VWidth: 200
Flags: HW
LayerCount: 2
Fore
SplineSet
583.857 469.098 m 1
 408.007 469.098 l 1
 196.45 469.098 l 1
 232.135 530.902 l 1
 408.007 530.902 l 1
 619.557 530.902 l 1
 583.857 469.098 l 1
531.646 61.8047 m 1
 638.671 0 l 1
 408.007 0 l 1
 196.436 0 l 1
 232.12 61.8047 l 1
 408.007 61.8047 l 1
 531.646 61.8047 l 1
126.469 2.40527 m 1
 110.501 8.09668 98.9746 23.3438 98.9746 41.208 c 2
 98.9746 433.428 l 1
 160.779 397.742 l 1
 160.779 265.455 l 1
 160.779 61.8125 l 1
 126.469 2.40527 l 1
284.39 938.195 m 1
 177.321 1000 l 1
 408.007 1000 l 1
 675.824 1000 l 2
 680.628 1000 685.229 999.128 689.531 997.595 c 2
 655.228 938.195 l 1
 408.007 938.195 l 1
 284.39 938.195 l 1
655.22 814.614 m 1
 717.024 921.668 l 1
 717.024 566.58 l 1
 655.22 602.25 l 1
 655.22 734.553 l 1
 655.22 814.614 l 1
EndSplineSet
EndChar

StartChar: three
Encoding: 51 51 4
Width: 816
VWidth: 200
Flags: HW
LayerCount: 2
Fore
SplineSet
583.857 469.098 m 1
 408.007 469.098 l 1
 196.45 469.098 l 1
 232.135 530.902 l 1
 408.007 530.902 l 1
 619.557 530.902 l 1
 583.857 469.098 l 1
531.646 61.8047 m 1
 638.671 0 l 1
 408.007 0 l 1
 196.436 0 l 1
 232.12 61.8047 l 1
 408.007 61.8047 l 1
 531.646 61.8047 l 1
681.987 515.451 m 1
 717.025 495.218 l 1
 717.025 41.2012 l 2
 717.025 36.3965 716.152 31.7969 714.619 27.501 c 2
 655.213 61.7979 l 1
 655.22 61.7979 l 1
 655.22 265.447 l 1
 655.22 469.098 l 1
 655.22 469.098 l 1
 681.987 515.451 l 1
284.39 938.195 m 1
 177.321 1000 l 1
 408.007 1000 l 1
 675.824 1000 l 2
 680.628 1000 685.229 999.128 689.531 997.595 c 2
 655.228 938.195 l 1
 408.007 938.195 l 1
 284.39 938.195 l 1
655.22 814.614 m 1
 717.024 921.668 l 1
 717.024 566.58 l 1
 655.22 602.25 l 1
 655.22 734.553 l 1
 655.22 814.614 l 1
EndSplineSet
EndChar

StartChar: four
Encoding: 52 52 5
Width: 816
VWidth: 200
Flags: HW
LayerCount: 2
Fore
SplineSet
583.857 469.098 m 1
 408.007 469.098 l 1
 196.45 469.098 l 1
 232.135 530.902 l 1
 408.007 530.902 l 1
 619.557 530.902 l 1
 583.857 469.098 l 1
160.779 530.91 m 1
 133.998 484.556 l 1
 98.9746 504.775 l 1
 98.9746 958.792 l 2
 98.9746 963.596 99.8545 968.196 101.38 972.499 c 2
 160.779 938.195 l 1
 160.779 734.553 l 1
 160.779 530.91 l 1
681.987 515.451 m 1
 717.025 495.218 l 1
 717.025 41.2012 l 2
 717.025 36.3965 716.152 31.7969 714.619 27.501 c 2
 655.213 61.7979 l 1
 655.22 61.7979 l 1
 655.22 265.447 l 1
 655.22 469.098 l 1
 655.22 469.098 l 1
 681.987 515.451 l 1
655.22 814.614 m 1
 717.024 921.668 l 1
 717.024 566.58 l 1
 655.22 602.25 l 1
 655.22 734.553 l 1
 655.22 814.614 l 1
EndSplineSet
EndChar

StartChar: five
Encoding: 53 53 6
Width: 816
VWidth: 200
Flags: HW
LayerCount: 2
Fore
SplineSet
583.857 469.098 m 1
 408.007 469.098 l 1
 196.45 469.098 l 1
 232.135 530.902 l 1
 408.007 530.902 l 1
 619.557 530.902 l 1
 583.857 469.098 l 1
160.779 530.91 m 1
 133.998 484.556 l 1
 98.9746 504.775 l 1
 98.9746 958.792 l 2
 98.9746 963.596 99.8545 968.196 101.38 972.499 c 2
 160.779 938.195 l 1
 160.779 734.553 l 1
 160.779 530.91 l 1
531.646 61.8047 m 1
 638.671 0 l 1
 408.007 0 l 1
 196.436 0 l 1
 232.12 61.8047 l 1
 408.007 61.8047 l 1
 531.646 61.8047 l 1
681.987 515.451 m 1
 717.025 495.218 l 1
 717.025 41.2012 l 2
 717.025 36.3965 716.152 31.7969 714.619 27.501 c 2
 655.213 61.7979 l 1
 655.22 61.7979 l 1
 655.22 265.447 l 1
 655.22 469.098 l 1
 655.22 469.098 l 1
 681.987 515.451 l 1
284.39 938.195 m 1
 177.321 1000 l 1
 408.007 1000 l 1
 675.824 1000 l 2
 680.628 1000 685.229 999.128 689.531 997.595 c 2
 655.228 938.195 l 1
 408.007 938.195 l 1
 284.39 938.195 l 1
EndSplineSet
EndChar

StartChar: six
Encoding: 54 54 7
Width: 816
VWidth: 200
Flags: HW
LayerCount: 2
Fore
SplineSet
583.857 469.098 m 1
 408.007 469.098 l 1
 196.45 469.098 l 1
 232.135 530.902 l 1
 408.007 530.902 l 1
 619.557 530.902 l 1
 583.857 469.098 l 1
160.779 530.91 m 1
 133.998 484.556 l 1
 98.9746 504.775 l 1
 98.9746 958.792 l 2
 98.9746 963.596 99.8545 968.196 101.38 972.499 c 2
 160.779 938.195 l 1
 160.779 734.553 l 1
 160.779 530.91 l 1
531.646 61.8047 m 1
 638.671 0 l 1
 408.007 0 l 1
 196.436 0 l 1
 232.12 61.8047 l 1
 408.007 61.8047 l 1
 531.646 61.8047 l 1
681.987 515.451 m 1
 717.025 495.218 l 1
 717.025 41.2012 l 2
 717.025 36.3965 716.152 31.7969 714.619 27.501 c 2
 655.213 61.7979 l 1
 655.22 61.7979 l 1
 655.22 265.447 l 1
 655.22 469.098 l 1
 655.22 469.098 l 1
 681.987 515.451 l 1
126.469 2.40527 m 1
 110.501 8.09668 98.9746 23.3438 98.9746 41.208 c 2
 98.9746 433.428 l 1
 160.779 397.742 l 1
 160.779 265.455 l 1
 160.779 61.8125 l 1
 126.469 2.40527 l 1
284.39 938.195 m 1
 177.321 1000 l 1
 408.007 1000 l 1
 675.824 1000 l 2
 680.628 1000 685.229 999.128 689.531 997.595 c 2
 655.228 938.195 l 1
 408.007 938.195 l 1
 284.39 938.195 l 1
EndSplineSet
EndChar

StartChar: seven
Encoding: 55 55 8
Width: 816
VWidth: 200
Flags: HW
LayerCount: 2
Fore
SplineSet
160.779 530.91 m 1
 133.998 484.556 l 1
 98.9746 504.775 l 1
 98.9746 958.792 l 2
 98.9746 963.596 99.8545 968.196 101.38 972.499 c 2
 160.779 938.195 l 1
 160.779 734.553 l 1
 160.779 530.91 l 1
681.987 515.451 m 1
 717.025 495.218 l 1
 717.025 41.2012 l 2
 717.025 36.3965 716.152 31.7969 714.619 27.501 c 2
 655.213 61.7979 l 1
 655.22 61.7979 l 1
 655.22 265.447 l 1
 655.22 469.098 l 1
 655.22 469.098 l 1
 681.987 515.451 l 1
284.39 938.195 m 1
 177.321 1000 l 1
 408.007 1000 l 1
 675.824 1000 l 2
 680.628 1000 685.229 999.128 689.531 997.595 c 2
 655.228 938.195 l 1
 408.007 938.195 l 1
 284.39 938.195 l 1
655.22 814.614 m 1
 717.024 921.668 l 1
 717.024 566.58 l 1
 655.22 602.25 l 1
 655.22 734.553 l 1
 655.22 814.614 l 1
EndSplineSet
EndChar

StartChar: nine
Encoding: 57 57 9
Width: 816
VWidth: 200
Flags: HW
LayerCount: 2
Fore
SplineSet
583.857 469.098 m 1
 408.007 469.098 l 1
 196.45 469.098 l 1
 232.135 530.902 l 1
 408.007 530.902 l 1
 619.557 530.902 l 1
 583.857 469.098 l 1
160.779 530.91 m 1
 133.998 484.556 l 1
 98.9746 504.775 l 1
 98.9746 958.792 l 2
 98.9746 963.596 99.8545 968.196 101.38 972.499 c 2
 160.779 938.195 l 1
 160.779 734.553 l 1
 160.779 530.91 l 1
531.646 61.8047 m 1
 638.671 0 l 1
 408.007 0 l 1
 196.436 0 l 1
 232.12 61.8047 l 1
 408.007 61.8047 l 1
 531.646 61.8047 l 1
681.987 515.451 m 1
 717.025 495.218 l 1
 717.025 41.2012 l 2
 717.025 36.3965 716.152 31.7969 714.619 27.501 c 2
 655.213 61.7979 l 1
 655.22 61.7979 l 1
 655.22 265.447 l 1
 655.22 469.098 l 1
 655.22 469.098 l 1
 681.987 515.451 l 1
284.39 938.195 m 1
 177.321 1000 l 1
 408.007 1000 l 1
 675.824 1000 l 2
 680.628 1000 685.229 999.128 689.531 997.595 c 2
 655.228 938.195 l 1
 408.007 938.195 l 1
 284.39 938.195 l 1
655.22 814.614 m 1
 717.024 921.668 l 1
 717.024 566.58 l 1
 655.22 602.25 l 1
 655.22 734.553 l 1
 655.22 814.614 l 1
EndSplineSet
EndChar

StartChar: a
Encoding: 97 97 10
Width: 816
VWidth: 200
Flags: HW
LayerCount: 2
Fore
SplineSet
583.857 469.098 m 1
 408.007 469.098 l 1
 196.45 469.098 l 1
 232.135 530.902 l 1
 408.007 530.902 l 1
 619.557 530.902 l 1
 583.857 469.098 l 1
160.779 530.91 m 1
 133.998 484.556 l 1
 98.9746 504.775 l 1
 98.9746 958.792 l 2
 98.9746 963.596 99.8545 968.196 101.38 972.499 c 2
 160.779 938.195 l 1
 160.779 734.553 l 1
 160.779 530.91 l 1
681.987 515.451 m 1
 717.025 495.218 l 1
 717.025 41.2012 l 2
 717.025 36.3965 716.152 31.7969 714.619 27.501 c 2
 655.213 61.7979 l 1
 655.22 61.7979 l 1
 655.22 265.447 l 1
 655.22 469.098 l 1
 655.22 469.098 l 1
 681.987 515.451 l 1
126.469 2.40527 m 1
 110.501 8.09668 98.9746 23.3438 98.9746 41.208 c 2
 98.9746 433.428 l 1
 160.779 397.742 l 1
 160.779 265.455 l 1
 160.779 61.8125 l 1
 126.469 2.40527 l 1
284.39 938.195 m 1
 177.321 1000 l 1
 408.007 1000 l 1
 675.824 1000 l 2
 680.628 1000 685.229 999.128 689.531 997.595 c 2
 655.228 938.195 l 1
 408.007 938.195 l 1
 284.39 938.195 l 1
655.22 814.614 m 1
 717.024 921.668 l 1
 717.024 566.58 l 1
 655.22 602.25 l 1
 655.22 734.553 l 1
 655.22 814.614 l 1
EndSplineSet
EndChar

StartChar: b
Encoding: 98 98 11
Width: 816
VWidth: 200
Flags: HW
LayerCount: 2
Fore
SplineSet
583.857 469.098 m 1
 408.007 469.098 l 1
 196.45 469.098 l 1
 232.135 530.902 l 1
 408.007 530.902 l 1
 619.557 530.902 l 1
 583.857 469.098 l 1
160.779 530.91 m 1
 133.998 484.556 l 1
 98.9746 504.775 l 1
 98.9746 958.792 l 2
 98.9746 963.596 99.8545 968.196 101.38 972.499 c 2
 160.779 938.195 l 1
 160.779 734.553 l 1
 160.779 530.91 l 1
531.646 61.8047 m 1
 638.671 0 l 1
 408.007 0 l 1
 196.436 0 l 1
 232.12 61.8047 l 1
 408.007 61.8047 l 1
 531.646 61.8047 l 1
681.987 515.451 m 1
 717.025 495.218 l 1
 717.025 41.2012 l 2
 717.025 36.3965 716.152 31.7969 714.619 27.501 c 2
 655.213 61.7979 l 1
 655.22 61.7979 l 1
 655.22 265.447 l 1
 655.22 469.098 l 1
 655.22 469.098 l 1
 681.987 515.451 l 1
126.469 2.40527 m 1
 110.501 8.09668 98.9746 23.3438 98.9746 41.208 c 2
 98.9746 433.428 l 1
 160.779 397.742 l 1
 160.779 265.455 l 1
 160.779 61.8125 l 1
 126.469 2.40527 l 1
EndSplineSet
EndChar

StartChar: c
Encoding: 99 99 12
Width: 816
VWidth: 200
Flags: HW
LayerCount: 2
Fore
SplineSet
583.857 469.098 m 1
 408.007 469.098 l 1
 196.45 469.098 l 1
 232.135 530.902 l 1
 408.007 530.902 l 1
 619.557 530.902 l 1
 583.857 469.098 l 1
531.646 61.8047 m 1
 638.671 0 l 1
 408.007 0 l 1
 196.436 0 l 1
 232.12 61.8047 l 1
 408.007 61.8047 l 1
 531.646 61.8047 l 1
126.469 2.40527 m 1
 110.501 8.09668 98.9746 23.3438 98.9746 41.208 c 2
 98.9746 433.428 l 1
 160.779 397.742 l 1
 160.779 265.455 l 1
 160.779 61.8125 l 1
 126.469 2.40527 l 1
EndSplineSet
EndChar

StartChar: d
Encoding: 100 100 13
Width: 816
VWidth: 200
Flags: HW
LayerCount: 2
Fore
SplineSet
583.857 469.098 m 1
 408.007 469.098 l 1
 196.45 469.098 l 1
 232.135 530.902 l 1
 408.007 530.902 l 1
 619.557 530.902 l 1
 583.857 469.098 l 1
531.646 61.8047 m 1
 638.671 0 l 1
 408.007 0 l 1
 196.436 0 l 1
 232.12 61.8047 l 1
 408.007 61.8047 l 1
 531.646 61.8047 l 1
681.987 515.451 m 1
 717.025 495.218 l 1
 717.025 41.2012 l 2
 717.025 36.3965 716.152 31.7969 714.619 27.501 c 2
 655.213 61.7979 l 1
 655.22 61.7979 l 1
 655.22 265.447 l 1
 655.22 469.098 l 1
 655.22 469.098 l 1
 681.987 515.451 l 1
126.469 2.40527 m 1
 110.501 8.09668 98.9746 23.3438 98.9746 41.208 c 2
 98.9746 433.428 l 1
 160.779 397.742 l 1
 160.779 265.455 l 1
 160.779 61.8125 l 1
 126.469 2.40527 l 1
655.22 814.614 m 1
 717.024 921.668 l 1
 717.024 566.58 l 1
 655.22 602.25 l 1
 655.22 734.553 l 1
 655.22 814.614 l 1
EndSplineSet
EndChar

StartChar: e
Encoding: 101 101 14
Width: 816
VWidth: 200
Flags: HW
LayerCount: 2
Fore
SplineSet
583.857 469.098 m 1
 408.007 469.098 l 1
 196.45 469.098 l 1
 232.135 530.902 l 1
 408.007 530.902 l 1
 619.557 530.902 l 1
 583.857 469.098 l 1
160.779 530.91 m 1
 133.998 484.556 l 1
 98.9746 504.775 l 1
 98.9746 958.792 l 2
 98.9746 963.596 99.8545 968.196 101.38 972.499 c 2
 160.779 938.195 l 1
 160.779 734.553 l 1
 160.779 530.91 l 1
531.646 61.8047 m 1
 638.671 0 l 1
 408.007 0 l 1
 196.436 0 l 1
 232.12 61.8047 l 1
 408.007 61.8047 l 1
 531.646 61.8047 l 1
126.469 2.40527 m 1
 110.501 8.09668 98.9746 23.3438 98.9746 41.208 c 2
 98.9746 433.428 l 1
 160.779 397.742 l 1
 160.779 265.455 l 1
 160.779 61.8125 l 1
 126.469 2.40527 l 1
284.39 938.195 m 1
 177.321 1000 l 1
 408.007 1000 l 1
 675.824 1000 l 2
 680.628 1000 685.229 999.128 689.531 997.595 c 2
 655.228 938.195 l 1
 408.007 938.195 l 1
 284.39 938.195 l 1
EndSplineSet
EndChar

StartChar: f
Encoding: 102 102 15
Width: 816
VWidth: 200
Flags: HW
LayerCount: 2
Fore
SplineSet
583.857 469.098 m 1
 408.007 469.098 l 1
 196.45 469.098 l 1
 232.135 530.902 l 1
 408.007 530.902 l 1
 619.557 530.902 l 1
 583.857 469.098 l 1
160.779 530.91 m 1
 133.998 484.556 l 1
 98.9746 504.775 l 1
 98.9746 958.792 l 2
 98.9746 963.596 99.8545 968.196 101.38 972.499 c 2
 160.779 938.195 l 1
 160.779 734.553 l 1
 160.779 530.91 l 1
126.469 2.40527 m 1
 110.501 8.09668 98.9746 23.3438 98.9746 41.208 c 2
 98.9746 433.428 l 1
 160.779 397.742 l 1
 160.779 265.455 l 1
 160.779 61.8125 l 1
 126.469 2.40527 l 1
284.39 938.195 m 1
 177.321 1000 l 1
 408.007 1000 l 1
 675.824 1000 l 2
 680.628 1000 685.229 999.128 689.531 997.595 c 2
 655.228 938.195 l 1
 408.007 938.195 l 1
 284.39 938.195 l 1
EndSplineSet
EndChar

StartChar: g
Encoding: 103 103 16
Width: 816
VWidth: 200
Flags: HW
LayerCount: 2
Fore
SplineSet
160.779 530.91 m 1
 133.998 484.556 l 1
 98.9746 504.775 l 1
 98.9746 958.792 l 2
 98.9746 963.596 99.8545 968.196 101.38 972.499 c 2
 160.779 938.195 l 1
 160.779 734.553 l 1
 160.779 530.91 l 1
531.646 61.8047 m 1
 638.671 0 l 1
 408.007 0 l 1
 196.436 0 l 1
 232.12 61.8047 l 1
 408.007 61.8047 l 1
 531.646 61.8047 l 1
681.987 515.451 m 1
 717.025 495.218 l 1
 717.025 41.2012 l 2
 717.025 36.3965 716.152 31.7969 714.619 27.501 c 2
 655.213 61.7979 l 1
 655.22 61.7979 l 1
 655.22 265.447 l 1
 655.22 469.098 l 1
 655.22 469.098 l 1
 681.987 515.451 l 1
126.469 2.40527 m 1
 110.501 8.09668 98.9746 23.3438 98.9746 41.208 c 2
 98.9746 433.428 l 1
 160.779 397.742 l 1
 160.779 265.455 l 1
 160.779 61.8125 l 1
 126.469 2.40527 l 1
284.39 938.195 m 1
 177.321 1000 l 1
 408.007 1000 l 1
 675.824 1000 l 2
 680.628 1000 685.229 999.128 689.531 997.595 c 2
 655.228 938.195 l 1
 408.007 938.195 l 1
 284.39 938.195 l 1
EndSplineSet
EndChar

StartChar: h
Encoding: 104 104 17
Width: 816
VWidth: 200
Flags: HW
LayerCount: 2
Fore
SplineSet
583.857 469.098 m 1
 408.007 469.098 l 1
 196.45 469.098 l 1
 232.135 530.902 l 1
 408.007 530.902 l 1
 619.557 530.902 l 1
 583.857 469.098 l 1
160.779 530.91 m 1
 133.998 484.556 l 1
 98.9746 504.775 l 1
 98.9746 958.792 l 2
 98.9746 963.596 99.8545 968.196 101.38 972.499 c 2
 160.779 938.195 l 1
 160.779 734.553 l 1
 160.779 530.91 l 1
681.987 515.451 m 1
 717.025 495.218 l 1
 717.025 41.2012 l 2
 717.025 36.3965 716.152 31.7969 714.619 27.501 c 2
 655.213 61.7979 l 1
 655.22 61.7979 l 1
 655.22 265.447 l 1
 655.22 469.098 l 1
 655.22 469.098 l 1
 681.987 515.451 l 1
126.469 2.40527 m 1
 110.501 8.09668 98.9746 23.3438 98.9746 41.208 c 2
 98.9746 433.428 l 1
 160.779 397.742 l 1
 160.779 265.455 l 1
 160.779 61.8125 l 1
 126.469 2.40527 l 1
EndSplineSet
EndChar

StartChar: i
Encoding: 105 105 18
Width: 816
VWidth: 200
Flags: HW
LayerCount: 2
Fore
SplineSet
681.987 515.451 m 1
 717.025 495.218 l 1
 717.025 41.2012 l 2
 717.025 36.3965 716.152 31.7969 714.619 27.501 c 2
 655.213 61.7979 l 1
 655.22 61.7979 l 1
 655.22 265.447 l 1
 655.22 469.098 l 1
 655.22 469.098 l 1
 681.987 515.451 l 1
EndSplineSet
EndChar

StartChar: j
Encoding: 106 106 19
Width: 816
VWidth: 200
Flags: HW
LayerCount: 2
Fore
SplineSet
531.646 61.8047 m 1
 638.671 0 l 1
 408.007 0 l 1
 196.436 0 l 1
 232.12 61.8047 l 1
 408.007 61.8047 l 1
 531.646 61.8047 l 1
681.987 515.451 m 1
 717.025 495.218 l 1
 717.025 41.2012 l 2
 717.025 36.3965 716.152 31.7969 714.619 27.501 c 2
 655.213 61.7979 l 1
 655.22 61.7979 l 1
 655.22 265.447 l 1
 655.22 469.098 l 1
 655.22 469.098 l 1
 681.987 515.451 l 1
126.469 2.40527 m 1
 110.501 8.09668 98.9746 23.3438 98.9746 41.208 c 2
 98.9746 433.428 l 1
 160.779 397.742 l 1
 160.779 265.455 l 1
 160.779 61.8125 l 1
 126.469 2.40527 l 1
655.22 814.614 m 1
 717.024 921.668 l 1
 717.024 566.58 l 1
 655.22 602.25 l 1
 655.22 734.553 l 1
 655.22 814.614 l 1
EndSplineSet
EndChar

StartChar: k
Encoding: 107 107 20
Width: 816
VWidth: 200
Flags: HW
LayerCount: 2
Fore
SplineSet
583.857 469.098 m 1
 408.007 469.098 l 1
 196.45 469.098 l 1
 232.135 530.902 l 1
 408.007 530.902 l 1
 619.557 530.902 l 1
 583.857 469.098 l 1
160.779 530.91 m 1
 133.998 484.556 l 1
 98.9746 504.775 l 1
 98.9746 958.792 l 2
 98.9746 963.596 99.8545 968.196 101.38 972.499 c 2
 160.779 938.195 l 1
 160.779 734.553 l 1
 160.779 530.91 l 1
681.987 515.451 m 1
 717.025 495.218 l 1
 717.025 41.2012 l 2
 717.025 36.3965 716.152 31.7969 714.619 27.501 c 2
 655.213 61.7979 l 1
 655.22 61.7979 l 1
 655.22 265.447 l 1
 655.22 469.098 l 1
 655.22 469.098 l 1
 681.987 515.451 l 1
126.469 2.40527 m 1
 110.501 8.09668 98.9746 23.3438 98.9746 41.208 c 2
 98.9746 433.428 l 1
 160.779 397.742 l 1
 160.779 265.455 l 1
 160.779 61.8125 l 1
 126.469 2.40527 l 1
284.39 938.195 m 1
 177.321 1000 l 1
 408.007 1000 l 1
 675.824 1000 l 2
 680.628 1000 685.229 999.128 689.531 997.595 c 2
 655.228 938.195 l 1
 408.007 938.195 l 1
 284.39 938.195 l 1
EndSplineSet
EndChar

StartChar: l
Encoding: 108 108 21
Width: 816
VWidth: 200
Flags: HW
LayerCount: 2
Fore
SplineSet
160.779 530.91 m 1
 133.998 484.556 l 1
 98.9746 504.775 l 1
 98.9746 958.792 l 2
 98.9746 963.596 99.8545 968.196 101.38 972.499 c 2
 160.779 938.195 l 1
 160.779 734.553 l 1
 160.779 530.91 l 1
531.646 61.8047 m 1
 638.671 0 l 1
 408.007 0 l 1
 196.436 0 l 1
 232.12 61.8047 l 1
 408.007 61.8047 l 1
 531.646 61.8047 l 1
126.469 2.40527 m 1
 110.501 8.09668 98.9746 23.3438 98.9746 41.208 c 2
 98.9746 433.428 l 1
 160.779 397.742 l 1
 160.779 265.455 l 1
 160.779 61.8125 l 1
 126.469 2.40527 l 1
EndSplineSet
EndChar

StartChar: m
Encoding: 109 109 22
Width: 816
VWidth: 200
Flags: HW
LayerCount: 2
Fore
SplineSet
160.779 530.91 m 1
 133.998 484.556 l 1
 98.9746 504.775 l 1
 98.9746 958.792 l 2
 98.9746 963.596 99.8545 968.196 101.38 972.499 c 2
 160.779 938.195 l 1
 160.779 734.553 l 1
 160.779 530.91 l 1
681.987 515.451 m 1
 717.025 495.218 l 1
 717.025 41.2012 l 2
 717.025 36.3965 716.152 31.7969 714.619 27.501 c 2
 655.213 61.7979 l 1
 655.22 61.7979 l 1
 655.22 265.447 l 1
 655.22 469.098 l 1
 655.22 469.098 l 1
 681.987 515.451 l 1
126.469 2.40527 m 1
 110.501 8.09668 98.9746 23.3438 98.9746 41.208 c 2
 98.9746 433.428 l 1
 160.779 397.742 l 1
 160.779 265.455 l 1
 160.779 61.8125 l 1
 126.469 2.40527 l 1
284.39 938.195 m 1
 177.321 1000 l 1
 408.007 1000 l 1
 675.824 1000 l 2
 680.628 1000 685.229 999.128 689.531 997.595 c 2
 655.228 938.195 l 1
 408.007 938.195 l 1
 284.39 938.195 l 1
655.22 814.614 m 1
 717.024 921.668 l 1
 717.024 566.58 l 1
 655.22 602.25 l 1
 655.22 734.553 l 1
 655.22 814.614 l 1
EndSplineSet
EndChar

StartChar: n
Encoding: 110 110 23
Width: 816
VWidth: 200
Flags: HW
LayerCount: 2
Fore
SplineSet
583.857 469.098 m 1
 408.007 469.098 l 1
 196.45 469.098 l 1
 232.135 530.902 l 1
 408.007 530.902 l 1
 619.557 530.902 l 1
 583.857 469.098 l 1
681.987 515.451 m 1
 717.025 495.218 l 1
 717.025 41.2012 l 2
 717.025 36.3965 716.152 31.7969 714.619 27.501 c 2
 655.213 61.7979 l 1
 655.22 61.7979 l 1
 655.22 265.447 l 1
 655.22 469.098 l 1
 655.22 469.098 l 1
 681.987 515.451 l 1
126.469 2.40527 m 1
 110.501 8.09668 98.9746 23.3438 98.9746 41.208 c 2
 98.9746 433.428 l 1
 160.779 397.742 l 1
 160.779 265.455 l 1
 160.779 61.8125 l 1
 126.469 2.40527 l 1
EndSplineSet
EndChar

StartChar: o
Encoding: 111 111 24
Width: 816
VWidth: 200
Flags: HW
LayerCount: 2
Fore
SplineSet
583.857 469.098 m 1
 408.007 469.098 l 1
 196.45 469.098 l 1
 232.135 530.902 l 1
 408.007 530.902 l 1
 619.557 530.902 l 1
 583.857 469.098 l 1
531.646 61.8047 m 1
 638.671 0 l 1
 408.007 0 l 1
 196.436 0 l 1
 232.12 61.8047 l 1
 408.007 61.8047 l 1
 531.646 61.8047 l 1
681.987 515.451 m 1
 717.025 495.218 l 1
 717.025 41.2012 l 2
 717.025 36.3965 716.152 31.7969 714.619 27.501 c 2
 655.213 61.7979 l 1
 655.22 61.7979 l 1
 655.22 265.447 l 1
 655.22 469.098 l 1
 655.22 469.098 l 1
 681.987 515.451 l 1
126.469 2.40527 m 1
 110.501 8.09668 98.9746 23.3438 98.9746 41.208 c 2
 98.9746 433.428 l 1
 160.779 397.742 l 1
 160.779 265.455 l 1
 160.779 61.8125 l 1
 126.469 2.40527 l 1
EndSplineSet
EndChar

StartChar: p
Encoding: 112 112 25
Width: 816
VWidth: 200
Flags: HW
LayerCount: 2
Fore
SplineSet
583.857 469.098 m 1
 408.007 469.098 l 1
 196.45 469.098 l 1
 232.135 530.902 l 1
 408.007 530.902 l 1
 619.557 530.902 l 1
 583.857 469.098 l 1
160.779 530.91 m 1
 133.998 484.556 l 1
 98.9746 504.775 l 1
 98.9746 958.792 l 2
 98.9746 963.596 99.8545 968.196 101.38 972.499 c 2
 160.779 938.195 l 1
 160.779 734.553 l 1
 160.779 530.91 l 1
126.469 2.40527 m 1
 110.501 8.09668 98.9746 23.3438 98.9746 41.208 c 2
 98.9746 433.428 l 1
 160.779 397.742 l 1
 160.779 265.455 l 1
 160.779 61.8125 l 1
 126.469 2.40527 l 1
284.39 938.195 m 1
 177.321 1000 l 1
 408.007 1000 l 1
 675.824 1000 l 2
 680.628 1000 685.229 999.128 689.531 997.595 c 2
 655.228 938.195 l 1
 408.007 938.195 l 1
 284.39 938.195 l 1
655.22 814.614 m 1
 717.024 921.668 l 1
 717.024 566.58 l 1
 655.22 602.25 l 1
 655.22 734.553 l 1
 655.22 814.614 l 1
EndSplineSet
EndChar

StartChar: q
Encoding: 113 113 26
Width: 816
VWidth: 200
Flags: HW
LayerCount: 2
Fore
SplineSet
583.857 469.098 m 1
 408.007 469.098 l 1
 196.45 469.098 l 1
 232.135 530.902 l 1
 408.007 530.902 l 1
 619.557 530.902 l 1
 583.857 469.098 l 1
160.779 530.91 m 1
 133.998 484.556 l 1
 98.9746 504.775 l 1
 98.9746 958.792 l 2
 98.9746 963.596 99.8545 968.196 101.38 972.499 c 2
 160.779 938.195 l 1
 160.779 734.553 l 1
 160.779 530.91 l 1
681.987 515.451 m 1
 717.025 495.218 l 1
 717.025 41.2012 l 2
 717.025 36.3965 716.152 31.7969 714.619 27.501 c 2
 655.213 61.7979 l 1
 655.22 61.7979 l 1
 655.22 265.447 l 1
 655.22 469.098 l 1
 655.22 469.098 l 1
 681.987 515.451 l 1
284.39 938.195 m 1
 177.321 1000 l 1
 408.007 1000 l 1
 675.824 1000 l 2
 680.628 1000 685.229 999.128 689.531 997.595 c 2
 655.228 938.195 l 1
 408.007 938.195 l 1
 284.39 938.195 l 1
655.22 814.614 m 1
 717.024 921.668 l 1
 717.024 566.58 l 1
 655.22 602.25 l 1
 655.22 734.553 l 1
 655.22 814.614 l 1
EndSplineSet
EndChar

StartChar: r
Encoding: 114 114 27
Width: 816
VWidth: 200
Flags: HW
LayerCount: 2
Fore
SplineSet
583.857 469.098 m 1
 408.007 469.098 l 1
 196.45 469.098 l 1
 232.135 530.902 l 1
 408.007 530.902 l 1
 619.557 530.902 l 1
 583.857 469.098 l 1
126.469 2.40527 m 1
 110.501 8.09668 98.9746 23.3438 98.9746 41.208 c 2
 98.9746 433.428 l 1
 160.779 397.742 l 1
 160.779 265.455 l 1
 160.779 61.8125 l 1
 126.469 2.40527 l 1
EndSplineSet
EndChar

StartChar: s
Encoding: 115 115 28
Width: 816
VWidth: 200
Flags: HW
LayerCount: 2
Fore
SplineSet
583.857 469.098 m 1
 408.007 469.098 l 1
 196.45 469.098 l 1
 232.135 530.902 l 1
 408.007 530.902 l 1
 619.557 530.902 l 1
 583.857 469.098 l 1
160.779 530.91 m 1
 133.998 484.556 l 1
 98.9746 504.775 l 1
 98.9746 958.792 l 2
 98.9746 963.596 99.8545 968.196 101.38 972.499 c 2
 160.779 938.195 l 1
 160.779 734.553 l 1
 160.779 530.91 l 1
531.646 61.8047 m 1
 638.671 0 l 1
 408.007 0 l 1
 196.436 0 l 1
 232.12 61.8047 l 1
 408.007 61.8047 l 1
 531.646 61.8047 l 1
681.987 515.451 m 1
 717.025 495.218 l 1
 717.025 41.2012 l 2
 717.025 36.3965 716.152 31.7969 714.619 27.501 c 2
 655.213 61.7979 l 1
 655.22 61.7979 l 1
 655.22 265.447 l 1
 655.22 469.098 l 1
 655.22 469.098 l 1
 681.987 515.451 l 1
EndSplineSet
EndChar

StartChar: t
Encoding: 116 116 29
Width: 816
VWidth: 200
Flags: HW
LayerCount: 2
Fore
SplineSet
583.857 469.098 m 1
 408.007 469.098 l 1
 196.45 469.098 l 1
 232.135 530.902 l 1
 408.007 530.902 l 1
 619.557 530.902 l 1
 583.857 469.098 l 1
160.779 530.91 m 1
 133.998 484.556 l 1
 98.9746 504.775 l 1
 98.9746 958.792 l 2
 98.9746 963.596 99.8545 968.196 101.38 972.499 c 2
 160.779 938.195 l 1
 160.779 734.553 l 1
 160.779 530.91 l 1
531.646 61.8047 m 1
 638.671 0 l 1
 408.007 0 l 1
 196.436 0 l 1
 232.12 61.8047 l 1
 408.007 61.8047 l 1
 531.646 61.8047 l 1
126.469 2.40527 m 1
 110.501 8.09668 98.9746 23.3438 98.9746 41.208 c 2
 98.9746 433.428 l 1
 160.779 397.742 l 1
 160.779 265.455 l 1
 160.779 61.8125 l 1
 126.469 2.40527 l 1
EndSplineSet
EndChar

StartChar: u
Encoding: 117 117 30
Width: 816
VWidth: 200
Flags: HW
LayerCount: 2
Fore
SplineSet
531.646 61.8047 m 1
 638.671 0 l 1
 408.007 0 l 1
 196.436 0 l 1
 232.12 61.8047 l 1
 408.007 61.8047 l 1
 531.646 61.8047 l 1
681.987 515.451 m 1
 717.025 495.218 l 1
 717.025 41.2012 l 2
 717.025 36.3965 716.152 31.7969 714.619 27.501 c 2
 655.213 61.7979 l 1
 655.22 61.7979 l 1
 655.22 265.447 l 1
 655.22 469.098 l 1
 655.22 469.098 l 1
 681.987 515.451 l 1
126.469 2.40527 m 1
 110.501 8.09668 98.9746 23.3438 98.9746 41.208 c 2
 98.9746 433.428 l 1
 160.779 397.742 l 1
 160.779 265.455 l 1
 160.779 61.8125 l 1
 126.469 2.40527 l 1
EndSplineSet
EndChar

StartChar: v
Encoding: 118 118 31
Width: 816
VWidth: 200
Flags: HW
LayerCount: 2
Fore
SplineSet
160.779 530.91 m 1
 133.998 484.556 l 1
 98.9746 504.775 l 1
 98.9746 958.792 l 2
 98.9746 963.596 99.8545 968.196 101.38 972.499 c 2
 160.779 938.195 l 1
 160.779 734.553 l 1
 160.779 530.91 l 1
531.646 61.8047 m 1
 638.671 0 l 1
 408.007 0 l 1
 196.436 0 l 1
 232.12 61.8047 l 1
 408.007 61.8047 l 1
 531.646 61.8047 l 1
681.987 515.451 m 1
 717.025 495.218 l 1
 717.025 41.2012 l 2
 717.025 36.3965 716.152 31.7969 714.619 27.501 c 2
 655.213 61.7979 l 1
 655.22 61.7979 l 1
 655.22 265.447 l 1
 655.22 469.098 l 1
 655.22 469.098 l 1
 681.987 515.451 l 1
126.469 2.40527 m 1
 110.501 8.09668 98.9746 23.3438 98.9746 41.208 c 2
 98.9746 433.428 l 1
 160.779 397.742 l 1
 160.779 265.455 l 1
 160.779 61.8125 l 1
 126.469 2.40527 l 1
655.22 814.614 m 1
 717.024 921.668 l 1
 717.024 566.58 l 1
 655.22 602.25 l 1
 655.22 734.553 l 1
 655.22 814.614 l 1
EndSplineSet
EndChar

StartChar: w
Encoding: 119 119 32
Width: 816
VWidth: 200
Flags: HW
LayerCount: 2
Fore
SplineSet
583.857 469.098 m 1
 408.007 469.098 l 1
 196.45 469.098 l 1
 232.135 530.902 l 1
 408.007 530.902 l 1
 619.557 530.902 l 1
 583.857 469.098 l 1
160.779 530.91 m 1
 133.998 484.556 l 1
 98.9746 504.775 l 1
 98.9746 958.792 l 2
 98.9746 963.596 99.8545 968.196 101.38 972.499 c 2
 160.779 938.195 l 1
 160.779 734.553 l 1
 160.779 530.91 l 1
531.646 61.8047 m 1
 638.671 0 l 1
 408.007 0 l 1
 196.436 0 l 1
 232.12 61.8047 l 1
 408.007 61.8047 l 1
 531.646 61.8047 l 1
681.987 515.451 m 1
 717.025 495.218 l 1
 717.025 41.2012 l 2
 717.025 36.3965 716.152 31.7969 714.619 27.501 c 2
 655.213 61.7979 l 1
 655.22 61.7979 l 1
 655.22 265.447 l 1
 655.22 469.098 l 1
 655.22 469.098 l 1
 681.987 515.451 l 1
126.469 2.40527 m 1
 110.501 8.09668 98.9746 23.3438 98.9746 41.208 c 2
 98.9746 433.428 l 1
 160.779 397.742 l 1
 160.779 265.455 l 1
 160.779 61.8125 l 1
 126.469 2.40527 l 1
655.22 814.614 m 1
 717.024 921.668 l 1
 717.024 566.58 l 1
 655.22 602.25 l 1
 655.22 734.553 l 1
 655.22 814.614 l 1
EndSplineSet
EndChar

StartChar: x
Encoding: 120 120 33
Width: 816
VWidth: 200
Flags: HW
LayerCount: 2
Fore
SplineSet
583.857 469.098 m 1
 408.007 469.098 l 1
 196.45 469.098 l 1
 232.135 530.902 l 1
 408.007 530.902 l 1
 619.557 530.902 l 1
 583.857 469.098 l 1
160.779 530.91 m 1
 133.998 484.556 l 1
 98.9746 504.775 l 1
 98.9746 958.792 l 2
 98.9746 963.596 99.8545 968.196 101.38 972.499 c 2
 160.779 938.195 l 1
 160.779 734.553 l 1
 160.779 530.91 l 1
681.987 515.451 m 1
 717.025 495.218 l 1
 717.025 41.2012 l 2
 717.025 36.3965 716.152 31.7969 714.619 27.501 c 2
 655.213 61.7979 l 1
 655.22 61.7979 l 1
 655.22 265.447 l 1
 655.22 469.098 l 1
 655.22 469.098 l 1
 681.987 515.451 l 1
126.469 2.40527 m 1
 110.501 8.09668 98.9746 23.3438 98.9746 41.208 c 2
 98.9746 433.428 l 1
 160.779 397.742 l 1
 160.779 265.455 l 1
 160.779 61.8125 l 1
 126.469 2.40527 l 1
655.22 814.614 m 1
 717.024 921.668 l 1
 717.024 566.58 l 1
 655.22 602.25 l 1
 655.22 734.553 l 1
 655.22 814.614 l 1
EndSplineSet
EndChar

StartChar: y
Encoding: 121 121 34
Width: 816
VWidth: 200
Flags: HW
LayerCount: 2
Fore
SplineSet
583.857 469.098 m 1
 408.007 469.098 l 1
 196.45 469.098 l 1
 232.135 530.902 l 1
 408.007 530.902 l 1
 619.557 530.902 l 1
 583.857 469.098 l 1
160.779 530.91 m 1
 133.998 484.556 l 1
 98.9746 504.775 l 1
 98.9746 958.792 l 2
 98.9746 963.596 99.8545 968.196 101.38 972.499 c 2
 160.779 938.195 l 1
 160.779 734.553 l 1
 160.779 530.91 l 1
531.646 61.8047 m 1
 638.671 0 l 1
 408.007 0 l 1
 196.436 0 l 1
 232.12 61.8047 l 1
 408.007 61.8047 l 1
 531.646 61.8047 l 1
681.987 515.451 m 1
 717.025 495.218 l 1
 717.025 41.2012 l 2
 717.025 36.3965 716.152 31.7969 714.619 27.501 c 2
 655.213 61.7979 l 1
 655.22 61.7979 l 1
 655.22 265.447 l 1
 655.22 469.098 l 1
 655.22 469.098 l 1
 681.987 515.451 l 1
655.22 814.614 m 1
 717.024 921.668 l 1
 717.024 566.58 l 1
 655.22 602.25 l 1
 655.22 734.553 l 1
 655.22 814.614 l 1
EndSplineSet
EndChar

StartChar: z
Encoding: 122 122 35
Width: 816
VWidth: 200
Flags: HW
LayerCount: 2
Fore
SplineSet
531.646 61.8047 m 1
 638.671 0 l 1
 408.007 0 l 1
 196.436 0 l 1
 232.12 61.8047 l 1
 408.007 61.8047 l 1
 531.646 61.8047 l 1
126.469 2.40527 m 1
 110.501 8.09668 98.9746 23.3438 98.9746 41.208 c 2
 98.9746 433.428 l 1
 160.779 397.742 l 1
 160.779 265.455 l 1
 160.779 61.8125 l 1
 126.469 2.40527 l 1
284.39 938.195 m 1
 177.321 1000 l 1
 408.007 1000 l 1
 675.824 1000 l 2
 680.628 1000 685.229 999.128 689.531 997.595 c 2
 655.228 938.195 l 1
 408.007 938.195 l 1
 284.39 938.195 l 1
655.22 814.614 m 1
 717.024 921.668 l 1
 717.024 566.58 l 1
 655.22 602.25 l 1
 655.22 734.553 l 1
 655.22 814.614 l 1
EndSplineSet
EndChar

StartChar: A
Encoding: 65 65 36
Width: 816
VWidth: 200
Flags: HW
LayerCount: 2
Fore
SplineSet
583.857 469.098 m 1
 408.007 469.098 l 1
 196.45 469.098 l 1
 232.135 530.902 l 1
 408.007 530.902 l 1
 619.557 530.902 l 1
 583.857 469.098 l 1
160.779 530.91 m 1
 133.998 484.556 l 1
 98.9746 504.775 l 1
 98.9746 958.792 l 2
 98.9746 963.596 99.8545 968.196 101.38 972.499 c 2
 160.779 938.195 l 1
 160.779 734.553 l 1
 160.779 530.91 l 1
681.987 515.451 m 1
 717.025 495.218 l 1
 717.025 41.2012 l 2
 717.025 36.3965 716.152 31.7969 714.619 27.501 c 2
 655.213 61.7979 l 1
 655.22 61.7979 l 1
 655.22 265.447 l 1
 655.22 469.098 l 1
 655.22 469.098 l 1
 681.987 515.451 l 1
126.469 2.40527 m 1
 110.501 8.09668 98.9746 23.3438 98.9746 41.208 c 2
 98.9746 433.428 l 1
 160.779 397.742 l 1
 160.779 265.455 l 1
 160.779 61.8125 l 1
 126.469 2.40527 l 1
284.39 938.195 m 1
 177.321 1000 l 1
 408.007 1000 l 1
 675.824 1000 l 2
 680.628 1000 685.229 999.128 689.531 997.595 c 2
 655.228 938.195 l 1
 408.007 938.195 l 1
 284.39 938.195 l 1
655.22 814.614 m 1
 717.024 921.668 l 1
 717.024 566.58 l 1
 655.22 602.25 l 1
 655.22 734.553 l 1
 655.22 814.614 l 1
EndSplineSet
EndChar

StartChar: B
Encoding: 66 66 37
Width: 816
VWidth: 200
Flags: HW
LayerCount: 2
Fore
SplineSet
583.857 469.098 m 1
 408.007 469.098 l 1
 196.45 469.098 l 1
 232.135 530.902 l 1
 408.007 530.902 l 1
 619.557 530.902 l 1
 583.857 469.098 l 1
160.779 530.91 m 1
 133.998 484.556 l 1
 98.9746 504.775 l 1
 98.9746 958.792 l 2
 98.9746 963.596 99.8545 968.196 101.38 972.499 c 2
 160.779 938.195 l 1
 160.779 734.553 l 1
 160.779 530.91 l 1
531.646 61.8047 m 1
 638.671 0 l 1
 408.007 0 l 1
 196.436 0 l 1
 232.12 61.8047 l 1
 408.007 61.8047 l 1
 531.646 61.8047 l 1
681.987 515.451 m 1
 717.025 495.218 l 1
 717.025 41.2012 l 2
 717.025 36.3965 716.152 31.7969 714.619 27.501 c 2
 655.213 61.7979 l 1
 655.22 61.7979 l 1
 655.22 265.447 l 1
 655.22 469.098 l 1
 655.22 469.098 l 1
 681.987 515.451 l 1
126.469 2.40527 m 1
 110.501 8.09668 98.9746 23.3438 98.9746 41.208 c 2
 98.9746 433.428 l 1
 160.779 397.742 l 1
 160.779 265.455 l 1
 160.779 61.8125 l 1
 126.469 2.40527 l 1
EndSplineSet
EndChar

StartChar: C
Encoding: 67 67 38
Width: 816
VWidth: 200
Flags: HW
LayerCount: 2
Fore
SplineSet
583.857 469.098 m 1
 408.007 469.098 l 1
 196.45 469.098 l 1
 232.135 530.902 l 1
 408.007 530.902 l 1
 619.557 530.902 l 1
 583.857 469.098 l 1
531.646 61.8047 m 1
 638.671 0 l 1
 408.007 0 l 1
 196.436 0 l 1
 232.12 61.8047 l 1
 408.007 61.8047 l 1
 531.646 61.8047 l 1
126.469 2.40527 m 1
 110.501 8.09668 98.9746 23.3438 98.9746 41.208 c 2
 98.9746 433.428 l 1
 160.779 397.742 l 1
 160.779 265.455 l 1
 160.779 61.8125 l 1
 126.469 2.40527 l 1
EndSplineSet
EndChar

StartChar: D
Encoding: 68 68 39
Width: 816
VWidth: 200
Flags: HW
LayerCount: 2
Fore
SplineSet
583.857 469.098 m 1
 408.007 469.098 l 1
 196.45 469.098 l 1
 232.135 530.902 l 1
 408.007 530.902 l 1
 619.557 530.902 l 1
 583.857 469.098 l 1
531.646 61.8047 m 1
 638.671 0 l 1
 408.007 0 l 1
 196.436 0 l 1
 232.12 61.8047 l 1
 408.007 61.8047 l 1
 531.646 61.8047 l 1
681.987 515.451 m 1
 717.025 495.218 l 1
 717.025 41.2012 l 2
 717.025 36.3965 716.152 31.7969 714.619 27.501 c 2
 655.213 61.7979 l 1
 655.22 61.7979 l 1
 655.22 265.447 l 1
 655.22 469.098 l 1
 655.22 469.098 l 1
 681.987 515.451 l 1
126.469 2.40527 m 1
 110.501 8.09668 98.9746 23.3438 98.9746 41.208 c 2
 98.9746 433.428 l 1
 160.779 397.742 l 1
 160.779 265.455 l 1
 160.779 61.8125 l 1
 126.469 2.40527 l 1
655.22 814.614 m 1
 717.024 921.668 l 1
 717.024 566.58 l 1
 655.22 602.25 l 1
 655.22 734.553 l 1
 655.22 814.614 l 1
EndSplineSet
EndChar

StartChar: E
Encoding: 69 69 40
Width: 816
VWidth: 200
Flags: HW
LayerCount: 2
Fore
SplineSet
583.857 469.098 m 1
 408.007 469.098 l 1
 196.45 469.098 l 1
 232.135 530.902 l 1
 408.007 530.902 l 1
 619.557 530.902 l 1
 583.857 469.098 l 1
160.779 530.91 m 1
 133.998 484.556 l 1
 98.9746 504.775 l 1
 98.9746 958.792 l 2
 98.9746 963.596 99.8545 968.196 101.38 972.499 c 2
 160.779 938.195 l 1
 160.779 734.553 l 1
 160.779 530.91 l 1
531.646 61.8047 m 1
 638.671 0 l 1
 408.007 0 l 1
 196.436 0 l 1
 232.12 61.8047 l 1
 408.007 61.8047 l 1
 531.646 61.8047 l 1
126.469 2.40527 m 1
 110.501 8.09668 98.9746 23.3438 98.9746 41.208 c 2
 98.9746 433.428 l 1
 160.779 397.742 l 1
 160.779 265.455 l 1
 160.779 61.8125 l 1
 126.469 2.40527 l 1
284.39 938.195 m 1
 177.321 1000 l 1
 408.007 1000 l 1
 675.824 1000 l 2
 680.628 1000 685.229 999.128 689.531 997.595 c 2
 655.228 938.195 l 1
 408.007 938.195 l 1
 284.39 938.195 l 1
EndSplineSet
EndChar

StartChar: F
Encoding: 70 70 41
Width: 816
VWidth: 200
Flags: HW
LayerCount: 2
Fore
SplineSet
583.857 469.098 m 1
 408.007 469.098 l 1
 196.45 469.098 l 1
 232.135 530.902 l 1
 408.007 530.902 l 1
 619.557 530.902 l 1
 583.857 469.098 l 1
160.779 530.91 m 1
 133.998 484.556 l 1
 98.9746 504.775 l 1
 98.9746 958.792 l 2
 98.9746 963.596 99.8545 968.196 101.38 972.499 c 2
 160.779 938.195 l 1
 160.779 734.553 l 1
 160.779 530.91 l 1
126.469 2.40527 m 1
 110.501 8.09668 98.9746 23.3438 98.9746 41.208 c 2
 98.9746 433.428 l 1
 160.779 397.742 l 1
 160.779 265.455 l 1
 160.779 61.8125 l 1
 126.469 2.40527 l 1
284.39 938.195 m 1
 177.321 1000 l 1
 408.007 1000 l 1
 675.824 1000 l 2
 680.628 1000 685.229 999.128 689.531 997.595 c 2
 655.228 938.195 l 1
 408.007 938.195 l 1
 284.39 938.195 l 1
EndSplineSet
EndChar

StartChar: G
Encoding: 71 71 42
Width: 816
VWidth: 200
Flags: HW
LayerCount: 2
Fore
SplineSet
160.779 530.91 m 1
 133.998 484.556 l 1
 98.9746 504.775 l 1
 98.9746 958.792 l 2
 98.9746 963.596 99.8545 968.196 101.38 972.499 c 2
 160.779 938.195 l 1
 160.779 734.553 l 1
 160.779 530.91 l 1
531.646 61.8047 m 1
 638.671 0 l 1
 408.007 0 l 1
 196.436 0 l 1
 232.12 61.8047 l 1
 408.007 61.8047 l 1
 531.646 61.8047 l 1
681.987 515.451 m 1
 717.025 495.218 l 1
 717.025 41.2012 l 2
 717.025 36.3965 716.152 31.7969 714.619 27.501 c 2
 655.213 61.7979 l 1
 655.22 61.7979 l 1
 655.22 265.447 l 1
 655.22 469.098 l 1
 655.22 469.098 l 1
 681.987 515.451 l 1
126.469 2.40527 m 1
 110.501 8.09668 98.9746 23.3438 98.9746 41.208 c 2
 98.9746 433.428 l 1
 160.779 397.742 l 1
 160.779 265.455 l 1
 160.779 61.8125 l 1
 126.469 2.40527 l 1
284.39 938.195 m 1
 177.321 1000 l 1
 408.007 1000 l 1
 675.824 1000 l 2
 680.628 1000 685.229 999.128 689.531 997.595 c 2
 655.228 938.195 l 1
 408.007 938.195 l 1
 284.39 938.195 l 1
EndSplineSet
EndChar

StartChar: H
Encoding: 72 72 43
Width: 816
VWidth: 200
Flags: HW
LayerCount: 2
Fore
SplineSet
583.857 469.098 m 1
 408.007 469.098 l 1
 196.45 469.098 l 1
 232.135 530.902 l 1
 408.007 530.902 l 1
 619.557 530.902 l 1
 583.857 469.098 l 1
160.779 530.91 m 1
 133.998 484.556 l 1
 98.9746 504.775 l 1
 98.9746 958.792 l 2
 98.9746 963.596 99.8545 968.196 101.38 972.499 c 2
 160.779 938.195 l 1
 160.779 734.553 l 1
 160.779 530.91 l 1
681.987 515.451 m 1
 717.025 495.218 l 1
 717.025 41.2012 l 2
 717.025 36.3965 716.152 31.7969 714.619 27.501 c 2
 655.213 61.7979 l 1
 655.22 61.7979 l 1
 655.22 265.447 l 1
 655.22 469.098 l 1
 655.22 469.098 l 1
 681.987 515.451 l 1
126.469 2.40527 m 1
 110.501 8.09668 98.9746 23.3438 98.9746 41.208 c 2
 98.9746 433.428 l 1
 160.779 397.742 l 1
 160.779 265.455 l 1
 160.779 61.8125 l 1
 126.469 2.40527 l 1
EndSplineSet
EndChar

StartChar: I
Encoding: 73 73 44
Width: 816
VWidth: 200
Flags: HW
LayerCount: 2
Fore
SplineSet
681.987 515.451 m 1
 717.025 495.218 l 1
 717.025 41.2012 l 2
 717.025 36.3965 716.152 31.7969 714.619 27.501 c 2
 655.213 61.7979 l 1
 655.22 61.7979 l 1
 655.22 265.447 l 1
 655.22 469.098 l 1
 655.22 469.098 l 1
 681.987 515.451 l 1
EndSplineSet
EndChar

StartChar: J
Encoding: 74 74 45
Width: 816
VWidth: 200
Flags: HW
LayerCount: 2
Fore
SplineSet
531.646 61.8047 m 1
 638.671 0 l 1
 408.007 0 l 1
 196.436 0 l 1
 232.12 61.8047 l 1
 408.007 61.8047 l 1
 531.646 61.8047 l 1
681.987 515.451 m 1
 717.025 495.218 l 1
 717.025 41.2012 l 2
 717.025 36.3965 716.152 31.7969 714.619 27.501 c 2
 655.213 61.7979 l 1
 655.22 61.7979 l 1
 655.22 265.447 l 1
 655.22 469.098 l 1
 655.22 469.098 l 1
 681.987 515.451 l 1
126.469 2.40527 m 1
 110.501 8.09668 98.9746 23.3438 98.9746 41.208 c 2
 98.9746 433.428 l 1
 160.779 397.742 l 1
 160.779 265.455 l 1
 160.779 61.8125 l 1
 126.469 2.40527 l 1
655.22 814.614 m 1
 717.024 921.668 l 1
 717.024 566.58 l 1
 655.22 602.25 l 1
 655.22 734.553 l 1
 655.22 814.614 l 1
EndSplineSet
EndChar

StartChar: K
Encoding: 75 75 46
Width: 816
VWidth: 200
Flags: HW
LayerCount: 2
Fore
SplineSet
583.857 469.098 m 1
 408.007 469.098 l 1
 196.45 469.098 l 1
 232.135 530.902 l 1
 408.007 530.902 l 1
 619.557 530.902 l 1
 583.857 469.098 l 1
160.779 530.91 m 1
 133.998 484.556 l 1
 98.9746 504.775 l 1
 98.9746 958.792 l 2
 98.9746 963.596 99.8545 968.196 101.38 972.499 c 2
 160.779 938.195 l 1
 160.779 734.553 l 1
 160.779 530.91 l 1
681.987 515.451 m 1
 717.025 495.218 l 1
 717.025 41.2012 l 2
 717.025 36.3965 716.152 31.7969 714.619 27.501 c 2
 655.213 61.7979 l 1
 655.22 61.7979 l 1
 655.22 265.447 l 1
 655.22 469.098 l 1
 655.22 469.098 l 1
 681.987 515.451 l 1
126.469 2.40527 m 1
 110.501 8.09668 98.9746 23.3438 98.9746 41.208 c 2
 98.9746 433.428 l 1
 160.779 397.742 l 1
 160.779 265.455 l 1
 160.779 61.8125 l 1
 126.469 2.40527 l 1
284.39 938.195 m 1
 177.321 1000 l 1
 408.007 1000 l 1
 675.824 1000 l 2
 680.628 1000 685.229 999.128 689.531 997.595 c 2
 655.228 938.195 l 1
 408.007 938.195 l 1
 284.39 938.195 l 1
EndSplineSet
EndChar

StartChar: L
Encoding: 76 76 47
Width: 816
VWidth: 200
Flags: HW
LayerCount: 2
Fore
SplineSet
160.779 530.91 m 1
 133.998 484.556 l 1
 98.9746 504.775 l 1
 98.9746 958.792 l 2
 98.9746 963.596 99.8545 968.196 101.38 972.499 c 2
 160.779 938.195 l 1
 160.779 734.553 l 1
 160.779 530.91 l 1
531.646 61.8047 m 1
 638.671 0 l 1
 408.007 0 l 1
 196.436 0 l 1
 232.12 61.8047 l 1
 408.007 61.8047 l 1
 531.646 61.8047 l 1
126.469 2.40527 m 1
 110.501 8.09668 98.9746 23.3438 98.9746 41.208 c 2
 98.9746 433.428 l 1
 160.779 397.742 l 1
 160.779 265.455 l 1
 160.779 61.8125 l 1
 126.469 2.40527 l 1
EndSplineSet
EndChar

StartChar: M
Encoding: 77 77 48
Width: 816
VWidth: 200
Flags: HW
LayerCount: 2
Fore
SplineSet
160.779 530.91 m 1
 133.998 484.556 l 1
 98.9746 504.775 l 1
 98.9746 958.792 l 2
 98.9746 963.596 99.8545 968.196 101.38 972.499 c 2
 160.779 938.195 l 1
 160.779 734.553 l 1
 160.779 530.91 l 1
681.987 515.451 m 1
 717.025 495.218 l 1
 717.025 41.2012 l 2
 717.025 36.3965 716.152 31.7969 714.619 27.501 c 2
 655.213 61.7979 l 1
 655.22 61.7979 l 1
 655.22 265.447 l 1
 655.22 469.098 l 1
 655.22 469.098 l 1
 681.987 515.451 l 1
126.469 2.40527 m 1
 110.501 8.09668 98.9746 23.3438 98.9746 41.208 c 2
 98.9746 433.428 l 1
 160.779 397.742 l 1
 160.779 265.455 l 1
 160.779 61.8125 l 1
 126.469 2.40527 l 1
284.39 938.195 m 1
 177.321 1000 l 1
 408.007 1000 l 1
 675.824 1000 l 2
 680.628 1000 685.229 999.128 689.531 997.595 c 2
 655.228 938.195 l 1
 408.007 938.195 l 1
 284.39 938.195 l 1
655.22 814.614 m 1
 717.024 921.668 l 1
 717.024 566.58 l 1
 655.22 602.25 l 1
 655.22 734.553 l 1
 655.22 814.614 l 1
EndSplineSet
EndChar

StartChar: N
Encoding: 78 78 49
Width: 816
VWidth: 200
Flags: HW
LayerCount: 2
Fore
SplineSet
583.857 469.098 m 1
 408.007 469.098 l 1
 196.45 469.098 l 1
 232.135 530.902 l 1
 408.007 530.902 l 1
 619.557 530.902 l 1
 583.857 469.098 l 1
681.987 515.451 m 1
 717.025 495.218 l 1
 717.025 41.2012 l 2
 717.025 36.3965 716.152 31.7969 714.619 27.501 c 2
 655.213 61.7979 l 1
 655.22 61.7979 l 1
 655.22 265.447 l 1
 655.22 469.098 l 1
 655.22 469.098 l 1
 681.987 515.451 l 1
126.469 2.40527 m 1
 110.501 8.09668 98.9746 23.3438 98.9746 41.208 c 2
 98.9746 433.428 l 1
 160.779 397.742 l 1
 160.779 265.455 l 1
 160.779 61.8125 l 1
 126.469 2.40527 l 1
EndSplineSet
EndChar

StartChar: O
Encoding: 79 79 50
Width: 816
VWidth: 200
Flags: HW
LayerCount: 2
Fore
SplineSet
583.857 469.098 m 1
 408.007 469.098 l 1
 196.45 469.098 l 1
 232.135 530.902 l 1
 408.007 530.902 l 1
 619.557 530.902 l 1
 583.857 469.098 l 1
531.646 61.8047 m 1
 638.671 0 l 1
 408.007 0 l 1
 196.436 0 l 1
 232.12 61.8047 l 1
 408.007 61.8047 l 1
 531.646 61.8047 l 1
681.987 515.451 m 1
 717.025 495.218 l 1
 717.025 41.2012 l 2
 717.025 36.3965 716.152 31.7969 714.619 27.501 c 2
 655.213 61.7979 l 1
 655.22 61.7979 l 1
 655.22 265.447 l 1
 655.22 469.098 l 1
 655.22 469.098 l 1
 681.987 515.451 l 1
126.469 2.40527 m 1
 110.501 8.09668 98.9746 23.3438 98.9746 41.208 c 2
 98.9746 433.428 l 1
 160.779 397.742 l 1
 160.779 265.455 l 1
 160.779 61.8125 l 1
 126.469 2.40527 l 1
EndSplineSet
EndChar

StartChar: P
Encoding: 80 80 51
Width: 816
VWidth: 200
Flags: HW
LayerCount: 2
Fore
SplineSet
583.857 469.098 m 1
 408.007 469.098 l 1
 196.45 469.098 l 1
 232.135 530.902 l 1
 408.007 530.902 l 1
 619.557 530.902 l 1
 583.857 469.098 l 1
160.779 530.91 m 1
 133.998 484.556 l 1
 98.9746 504.775 l 1
 98.9746 958.792 l 2
 98.9746 963.596 99.8545 968.196 101.38 972.499 c 2
 160.779 938.195 l 1
 160.779 734.553 l 1
 160.779 530.91 l 1
126.469 2.40527 m 1
 110.501 8.09668 98.9746 23.3438 98.9746 41.208 c 2
 98.9746 433.428 l 1
 160.779 397.742 l 1
 160.779 265.455 l 1
 160.779 61.8125 l 1
 126.469 2.40527 l 1
284.39 938.195 m 1
 177.321 1000 l 1
 408.007 1000 l 1
 675.824 1000 l 2
 680.628 1000 685.229 999.128 689.531 997.595 c 2
 655.228 938.195 l 1
 408.007 938.195 l 1
 284.39 938.195 l 1
655.22 814.614 m 1
 717.024 921.668 l 1
 717.024 566.58 l 1
 655.22 602.25 l 1
 655.22 734.553 l 1
 655.22 814.614 l 1
EndSplineSet
EndChar

StartChar: Q
Encoding: 81 81 52
Width: 816
VWidth: 200
Flags: HW
LayerCount: 2
Fore
SplineSet
583.857 469.098 m 1
 408.007 469.098 l 1
 196.45 469.098 l 1
 232.135 530.902 l 1
 408.007 530.902 l 1
 619.557 530.902 l 1
 583.857 469.098 l 1
160.779 530.91 m 1
 133.998 484.556 l 1
 98.9746 504.775 l 1
 98.9746 958.792 l 2
 98.9746 963.596 99.8545 968.196 101.38 972.499 c 2
 160.779 938.195 l 1
 160.779 734.553 l 1
 160.779 530.91 l 1
681.987 515.451 m 1
 717.025 495.218 l 1
 717.025 41.2012 l 2
 717.025 36.3965 716.152 31.7969 714.619 27.501 c 2
 655.213 61.7979 l 1
 655.22 61.7979 l 1
 655.22 265.447 l 1
 655.22 469.098 l 1
 655.22 469.098 l 1
 681.987 515.451 l 1
284.39 938.195 m 1
 177.321 1000 l 1
 408.007 1000 l 1
 675.824 1000 l 2
 680.628 1000 685.229 999.128 689.531 997.595 c 2
 655.228 938.195 l 1
 408.007 938.195 l 1
 284.39 938.195 l 1
655.22 814.614 m 1
 717.024 921.668 l 1
 717.024 566.58 l 1
 655.22 602.25 l 1
 655.22 734.553 l 1
 655.22 814.614 l 1
EndSplineSet
EndChar

StartChar: R
Encoding: 82 82 53
Width: 816
VWidth: 200
Flags: HW
LayerCount: 2
Fore
SplineSet
583.857 469.098 m 1
 408.007 469.098 l 1
 196.45 469.098 l 1
 232.135 530.902 l 1
 408.007 530.902 l 1
 619.557 530.902 l 1
 583.857 469.098 l 1
126.469 2.40527 m 1
 110.501 8.09668 98.9746 23.3438 98.9746 41.208 c 2
 98.9746 433.428 l 1
 160.779 397.742 l 1
 160.779 265.455 l 1
 160.779 61.8125 l 1
 126.469 2.40527 l 1
EndSplineSet
EndChar

StartChar: S
Encoding: 83 83 54
Width: 816
VWidth: 200
Flags: HW
LayerCount: 2
Fore
SplineSet
583.857 469.098 m 1
 408.007 469.098 l 1
 196.45 469.098 l 1
 232.135 530.902 l 1
 408.007 530.902 l 1
 619.557 530.902 l 1
 583.857 469.098 l 1
160.779 530.91 m 1
 133.998 484.556 l 1
 98.9746 504.775 l 1
 98.9746 958.792 l 2
 98.9746 963.596 99.8545 968.196 101.38 972.499 c 2
 160.779 938.195 l 1
 160.779 734.553 l 1
 160.779 530.91 l 1
531.646 61.8047 m 1
 638.671 0 l 1
 408.007 0 l 1
 196.436 0 l 1
 232.12 61.8047 l 1
 408.007 61.8047 l 1
 531.646 61.8047 l 1
681.987 515.451 m 1
 717.025 495.218 l 1
 717.025 41.2012 l 2
 717.025 36.3965 716.152 31.7969 714.619 27.501 c 2
 655.213 61.7979 l 1
 655.22 61.7979 l 1
 655.22 265.447 l 1
 655.22 469.098 l 1
 655.22 469.098 l 1
 681.987 515.451 l 1
EndSplineSet
EndChar

StartChar: T
Encoding: 84 84 55
Width: 816
VWidth: 200
Flags: HW
LayerCount: 2
Fore
SplineSet
583.857 469.098 m 1
 408.007 469.098 l 1
 196.45 469.098 l 1
 232.135 530.902 l 1
 408.007 530.902 l 1
 619.557 530.902 l 1
 583.857 469.098 l 1
160.779 530.91 m 1
 133.998 484.556 l 1
 98.9746 504.775 l 1
 98.9746 958.792 l 2
 98.9746 963.596 99.8545 968.196 101.38 972.499 c 2
 160.779 938.195 l 1
 160.779 734.553 l 1
 160.779 530.91 l 1
531.646 61.8047 m 1
 638.671 0 l 1
 408.007 0 l 1
 196.436 0 l 1
 232.12 61.8047 l 1
 408.007 61.8047 l 1
 531.646 61.8047 l 1
126.469 2.40527 m 1
 110.501 8.09668 98.9746 23.3438 98.9746 41.208 c 2
 98.9746 433.428 l 1
 160.779 397.742 l 1
 160.779 265.455 l 1
 160.779 61.8125 l 1
 126.469 2.40527 l 1
EndSplineSet
EndChar

StartChar: U
Encoding: 85 85 56
Width: 816
VWidth: 200
Flags: HW
LayerCount: 2
Fore
SplineSet
531.646 61.8047 m 1
 638.671 0 l 1
 408.007 0 l 1
 196.436 0 l 1
 232.12 61.8047 l 1
 408.007 61.8047 l 1
 531.646 61.8047 l 1
681.987 515.451 m 1
 717.025 495.218 l 1
 717.025 41.2012 l 2
 717.025 36.3965 716.152 31.7969 714.619 27.501 c 2
 655.213 61.7979 l 1
 655.22 61.7979 l 1
 655.22 265.447 l 1
 655.22 469.098 l 1
 655.22 469.098 l 1
 681.987 515.451 l 1
126.469 2.40527 m 1
 110.501 8.09668 98.9746 23.3438 98.9746 41.208 c 2
 98.9746 433.428 l 1
 160.779 397.742 l 1
 160.779 265.455 l 1
 160.779 61.8125 l 1
 126.469 2.40527 l 1
EndSplineSet
EndChar

StartChar: V
Encoding: 86 86 57
Width: 816
VWidth: 200
Flags: HW
LayerCount: 2
Fore
SplineSet
160.779 530.91 m 1
 133.998 484.556 l 1
 98.9746 504.775 l 1
 98.9746 958.792 l 2
 98.9746 963.596 99.8545 968.196 101.38 972.499 c 2
 160.779 938.195 l 1
 160.779 734.553 l 1
 160.779 530.91 l 1
531.646 61.8047 m 1
 638.671 0 l 1
 408.007 0 l 1
 196.436 0 l 1
 232.12 61.8047 l 1
 408.007 61.8047 l 1
 531.646 61.8047 l 1
681.987 515.451 m 1
 717.025 495.218 l 1
 717.025 41.2012 l 2
 717.025 36.3965 716.152 31.7969 714.619 27.501 c 2
 655.213 61.7979 l 1
 655.22 61.7979 l 1
 655.22 265.447 l 1
 655.22 469.098 l 1
 655.22 469.098 l 1
 681.987 515.451 l 1
126.469 2.40527 m 1
 110.501 8.09668 98.9746 23.3438 98.9746 41.208 c 2
 98.9746 433.428 l 1
 160.779 397.742 l 1
 160.779 265.455 l 1
 160.779 61.8125 l 1
 126.469 2.40527 l 1
655.22 814.614 m 1
 717.024 921.668 l 1
 717.024 566.58 l 1
 655.22 602.25 l 1
 655.22 734.553 l 1
 655.22 814.614 l 1
EndSplineSet
EndChar

StartChar: W
Encoding: 87 87 58
Width: 816
VWidth: 200
Flags: HW
LayerCount: 2
Fore
SplineSet
583.857 469.098 m 1
 408.007 469.098 l 1
 196.45 469.098 l 1
 232.135 530.902 l 1
 408.007 530.902 l 1
 619.557 530.902 l 1
 583.857 469.098 l 1
160.779 530.91 m 1
 133.998 484.556 l 1
 98.9746 504.775 l 1
 98.9746 958.792 l 2
 98.9746 963.596 99.8545 968.196 101.38 972.499 c 2
 160.779 938.195 l 1
 160.779 734.553 l 1
 160.779 530.91 l 1
531.646 61.8047 m 1
 638.671 0 l 1
 408.007 0 l 1
 196.436 0 l 1
 232.12 61.8047 l 1
 408.007 61.8047 l 1
 531.646 61.8047 l 1
681.987 515.451 m 1
 717.025 495.218 l 1
 717.025 41.2012 l 2
 717.025 36.3965 716.152 31.7969 714.619 27.501 c 2
 655.213 61.7979 l 1
 655.22 61.7979 l 1
 655.22 265.447 l 1
 655.22 469.098 l 1
 655.22 469.098 l 1
 681.987 515.451 l 1
126.469 2.40527 m 1
 110.501 8.09668 98.9746 23.3438 98.9746 41.208 c 2
 98.9746 433.428 l 1
 160.779 397.742 l 1
 160.779 265.455 l 1
 160.779 61.8125 l 1
 126.469 2.40527 l 1
655.22 814.614 m 1
 717.024 921.668 l 1
 717.024 566.58 l 1
 655.22 602.25 l 1
 655.22 734.553 l 1
 655.22 814.614 l 1
EndSplineSet
EndChar

StartChar: X
Encoding: 88 88 59
Width: 816
VWidth: 200
Flags: HW
LayerCount: 2
Fore
SplineSet
583.857 469.098 m 1
 408.007 469.098 l 1
 196.45 469.098 l 1
 232.135 530.902 l 1
 408.007 530.902 l 1
 619.557 530.902 l 1
 583.857 469.098 l 1
160.779 530.91 m 1
 133.998 484.556 l 1
 98.9746 504.775 l 1
 98.9746 958.792 l 2
 98.9746 963.596 99.8545 968.196 101.38 972.499 c 2
 160.779 938.195 l 1
 160.779 734.553 l 1
 160.779 530.91 l 1
681.987 515.451 m 1
 717.025 495.218 l 1
 717.025 41.2012 l 2
 717.025 36.3965 716.152 31.7969 714.619 27.501 c 2
 655.213 61.7979 l 1
 655.22 61.7979 l 1
 655.22 265.447 l 1
 655.22 469.098 l 1
 655.22 469.098 l 1
 681.987 515.451 l 1
126.469 2.40527 m 1
 110.501 8.09668 98.9746 23.3438 98.9746 41.208 c 2
 98.9746 433.428 l 1
 160.779 397.742 l 1
 160.779 265.455 l 1
 160.779 61.8125 l 1
 126.469 2.40527 l 1
655.22 814.614 m 1
 717.024 921.668 l 1
 717.024 566.58 l 1
 655.22 602.25 l 1
 655.22 734.553 l 1
 655.22 814.614 l 1
EndSplineSet
EndChar

StartChar: Y
Encoding: 89 89 60
Width: 816
VWidth: 200
Flags: HW
LayerCount: 2
Fore
SplineSet
583.857 469.098 m 1
 408.007 469.098 l 1
 196.45 469.098 l 1
 232.135 530.902 l 1
 408.007 530.902 l 1
 619.557 530.902 l 1
 583.857 469.098 l 1
160.779 530.91 m 1
 133.998 484.556 l 1
 98.9746 504.775 l 1
 98.9746 958.792 l 2
 98.9746 963.596 99.8545 968.196 101.38 972.499 c 2
 160.779 938.195 l 1
 160.779 734.553 l 1
 160.779 530.91 l 1
531.646 61.8047 m 1
 638.671 0 l 1
 408.007 0 l 1
 196.436 0 l 1
 232.12 61.8047 l 1
 408.007 61.8047 l 1
 531.646 61.8047 l 1
681.987 515.451 m 1
 717.025 495.218 l 1
 717.025 41.2012 l 2
 717.025 36.3965 716.152 31.7969 714.619 27.501 c 2
 655.213 61.7979 l 1
 655.22 61.7979 l 1
 655.22 265.447 l 1
 655.22 469.098 l 1
 655.22 469.098 l 1
 681.987 515.451 l 1
655.22 814.614 m 1
 717.024 921.668 l 1
 717.024 566.58 l 1
 655.22 602.25 l 1
 655.22 734.553 l 1
 655.22 814.614 l 1
EndSplineSet
EndChar

StartChar: Z
Encoding: 90 90 61
Width: 816
VWidth: 200
Flags: HW
LayerCount: 2
Fore
SplineSet
531.646 61.8047 m 1
 638.671 0 l 1
 408.007 0 l 1
 196.436 0 l 1
 232.12 61.8047 l 1
 408.007 61.8047 l 1
 531.646 61.8047 l 1
126.469 2.40527 m 1
 110.501 8.09668 98.9746 23.3438 98.9746 41.208 c 2
 98.9746 433.428 l 1
 160.779 397.742 l 1
 160.779 265.455 l 1
 160.779 61.8125 l 1
 126.469 2.40527 l 1
284.39 938.195 m 1
 177.321 1000 l 1
 408.007 1000 l 1
 675.824 1000 l 2
 680.628 1000 685.229 999.128 689.531 997.595 c 2
 655.228 938.195 l 1
 408.007 938.195 l 1
 284.39 938.195 l 1
655.22 814.614 m 1
 717.024 921.668 l 1
 717.024 566.58 l 1
 655.22 602.25 l 1
 655.22 734.553 l 1
 655.22 814.614 l 1
EndSplineSet
EndChar

StartChar: hyphen
Encoding: 45 45 62
Width: 816
VWidth: 200
Flags: HW
LayerCount: 2
Fore
SplineSet
583.857 469.098 m 1
 408.007 469.098 l 1
 196.45 469.098 l 1
 232.135 530.902 l 1
 408.007 530.902 l 1
 619.557 530.902 l 1
 583.857 469.098 l 1
EndSplineSet
EndChar

StartChar: colon
Encoding: 58 58 63
Width: 200
VWidth: 0
Flags: HW
LayerCount: 2
Fore
SplineSet
162 693 m 0
 162 684 160 676 157 669 c 0
 154 662 150 655 144 649 c 0
 138 643 131 639 124 636 c 0
 117 633 109 631 100 631 c 0
 91 631 83 633 76 636 c 0
 69 639 62 643 56 649 c 0
 50 655 46 662 43 669 c 0
 40 676 38 684 38 693 c 0
 38 702 40 710 43 717 c 0
 46 724 50 730 56 736 c 0
 62 742 69 747 76 750 c 0
 83 753 91 754 100 754 c 0
 109 754 117 753 124 750 c 0
 131 747 138 742 144 736 c 0
 150 730 154 724 157 717 c 0
 160 710 162 702 162 693 c 0
162 281 m 0
 162 272 160 264 157 257 c 0
 154 250 150 243 144 237 c 0
 138 231 131 227 124 224 c 0
 117 221 109 219 100 219 c 0
 91 219 83 221 76 224 c 0
 69 227 62 231 56 237 c 0
 50 243 46 250 43 257 c 0
 40 264 38 272 38 281 c 0
 38 290 40 298 43 305 c 0
 46 312 50 318 56 324 c 0
 62 330 69 335 76 338 c 0
 83 341 91 342 100 342 c 0
 109 342 117 341 124 338 c 0
 131 335 138 330 144 324 c 0
 150 318 154 312 157 305 c 0
 160 298 162 290 162 281 c 0
EndSplineSet
EndChar

StartChar: period
Encoding: 46 46 64
Width: 0
VWidth: 0
Flags: HW
LayerCount: 2
Fore
SplineSet
62 62 m 0
 62 53 60 45 57 38 c 0
 54 31 50 24 44 18 c 0
 38 12 31 8 24 5 c 0
 17 2 9 0 0 0 c 0
 -9 0 -17 2 -24 5 c 0
 -31 8 -38 12 -44 18 c 0
 -50 24 -54 31 -57 38 c 0
 -60 45 -62 53 -62 62 c 0
 -62 71 -60 79 -57 86 c 0
 -54 93 -50 100 -44 106 c 0
 -38 112 -31 116 -24 119 c 0
 -17 122 -9 124 0 124 c 0
 9 124 17 122 24 119 c 0
 31 116 38 112 44 106 c 0
 50 100 54 93 57 86 c 0
 60 79 62 71 62 62 c 0
EndSplineSet
EndChar

